<svg width="43" height="46" viewBox="0 0 43 46" fill="none" xmlns="http://www.w3.org/2000/svg">
<path d="M18.6437 0.0569841C8.36304 0.0569841 0 9.00349 0 20.0014C0 30.9994 8.36304 39.9459 18.6437 39.9459C21.7865 39.9459 24.876 39.1481 27.4862 37.6095C27.6952 37.8787 27.927 38.1266 28.1786 38.3503L33.5054 44.0487C33.9973 44.6408 34.5971 45.1191 35.268 45.4542C35.9389 45.7893 36.6667 45.9742 37.4068 45.9975C38.1469 46.0208 38.8837 45.882 39.5718 45.5897C40.26 45.2974 40.8851 44.8577 41.4086 44.2976C41.9322 43.7375 42.3432 43.0688 42.6165 42.3327C42.8897 41.5965 43.0194 40.8083 42.9977 40.0166C42.9759 39.2248 42.803 38.4462 42.4898 37.7285C42.1765 37.0108 41.7294 36.3692 41.176 35.843L35.8492 30.1446C35.5897 29.8669 35.3041 29.6187 34.9969 29.4038C36.4351 26.6116 37.3407 23.3635 37.3407 19.9444C37.3407 8.9465 28.9777 0 18.697 0L18.6437 0.0569841ZM18.6437 5.75539C26.0479 5.75539 31.9607 12.0806 31.9607 20.0014C31.9607 23.7624 30.6822 27.2384 28.445 29.8027C28.3917 29.8597 28.3384 29.9167 28.2852 29.9736C28.0336 30.1973 27.8018 30.4453 27.5927 30.7144C25.2489 32.9938 22.0529 34.3044 18.5904 34.3044C11.1862 34.3044 5.27351 27.9792 5.27351 20.0584C5.27351 12.1376 11.1862 5.81238 18.5904 5.81238L18.6437 5.75539Z" fill="#7B6C6C"/>
</svg>
